<svg width="25" height="25" viewBox="0 0 25 25" fill="none" xmlns="http://www.w3.org/2000/svg">
<path d="M23.7846 1.21842C22.1599 -0.406043 19.5303 -0.406238 17.9054 1.21842L2.53674 16.5852C2.4343 16.6876 2.34954 16.8208 2.30086 16.9669L0.0518311 23.7132C-0.202075 24.4748 0.524439 25.2026 1.28709 24.9484L8.03426 22.6996C8.17693 22.652 8.31087 22.5688 8.41604 22.4637L23.7846 7.09694C25.4055 5.47623 25.4055 2.83912 23.7846 1.21842ZM2.52239 22.4781L3.65408 19.0833L5.91756 21.3465L2.52239 22.4781ZM7.72552 20.3923L4.60847 17.2756L17.6589 4.22677L20.7759 7.34347L7.72552 20.3923ZM22.4035 5.71603L22.1569 5.96256L19.0399 2.84586L19.2864 2.59938C20.1459 1.74015 21.5442 1.74015 22.4035 2.59938C23.2629 3.45861 23.2629 4.85675 22.4035 5.71603Z" fill="black"/>
</svg>
