<svg width="35" height="35" viewBox="0 0 35 35" fill="none" xmlns="http://www.w3.org/2000/svg">
<path d="M33.3065 13.548C34.2414 13.548 35 12.79 35 11.8545C35 10.919 34.2414 10.1609 33.3065 10.1609H26.8154L28.2743 1.99097C28.4386 1.07033 27.8256 0.190483 26.9049 0.0262105C25.992 -0.136414 25.1044 0.474399 24.9402 1.39559L23.3749 10.1609H14.2461L15.705 1.99097C15.8693 1.07033 15.2563 0.190483 14.3356 0.0262105C13.4249 -0.136414 12.5362 0.474399 12.3709 1.39559L10.8056 10.1609H1.69355C0.758563 10.1609 0 10.919 0 11.8545C0 12.79 0.758574 13.548 1.69355 13.548H10.2008L8.78948 21.4512H1.69355C0.758563 21.4512 0 22.2092 0 23.1447C0 24.0802 0.758574 24.8382 1.69355 24.8382H8.18459L6.72568 33.0082C6.56139 33.9289 7.17442 34.8087 8.09507 34.973C8.19541 34.9912 8.29573 35 8.39498 35C9.19985 35 9.91322 34.4239 10.0599 33.6036L11.6251 24.8382H20.7539L19.295 33.0082C19.1307 33.9289 19.7437 34.8087 20.6644 34.973C20.7647 34.9912 20.865 35 20.9643 35C21.7692 35 22.4825 34.4239 22.6292 33.6036L24.1944 24.8382H33.3065C34.2414 24.8382 35 24.0802 35 23.1447C35 22.2092 34.2414 21.4512 33.3065 21.4512H24.7992L26.2105 13.548H33.3065ZM21.3588 21.4512H12.2299L13.6412 13.548H22.7701L21.3588 21.4512Z" fill="#ABACAD"/>
</svg>
